<svg width="1836" height="1844" viewBox="0 0 1836 1844" preserveAspectRatio="xMidYMid meet" xmlns="http://www.w3.org/2000/svg" xmlns:xlink="http://www.w3.org/1999/xlink" xml:space="preserve" overflow="hidden"><defs><clipPath id="clip0"><rect x="113" y="338" width="1836" height="1844"/></clipPath></defs><g clip-path="url(#clip0)" transform="translate(-113 -338)"><path d="M1651 1768.5C1651 1717.97 1691.74 1677 1742 1677 1792.26 1677 1833 1717.97 1833 1768.5 1833 1819.03 1792.26 1860 1742 1860 1691.74 1860 1651 1819.03 1651 1768.5Z" fill="#F99039" fill-rule="evenodd"/><path d="M978 520 970.977 565.13 954.75 565.922C785.6 582.515 633.787 655.762 519.968 765.709L519.45 766.259 485.263 750.945 502.352 784.431 473.574 815.018C400.33 900.751 347.975 1003.75 324.037 1116.76L313.261 1184.96 268 1192 268.568 1181.12C305.066 833.247 590.78 556.689 950.169 521.36L978 520Z" fill="#34254C" fill-rule="evenodd"/><path d="M1079 520 1106.79 521.359C1465.68 556.652 1751 832.933 1787.45 1180.46L1788 1191 1742.77 1183.96 1732.06 1116.16C1708.15 1003.27 1655.87 900.369 1582.73 814.722L1555.99 786.296 1574.14 750.714 1537.83 766.987 1536.4 765.463C1422.74 655.626 1271.13 582.453 1102.22 565.876L1086.01 565.085 1079 520Z" fill="#34254C" fill-rule="evenodd"/><path d="M967 594 963.949 613.616 960.791 613.771C826.524 627.021 704.054 679.044 605.426 758.135L570.476 789 551 780.272 593.042 743.112C694.555 661.64 820.607 608.051 958.801 594.403L967 594Z" fill="#34254C" fill-rule="evenodd"/><path d="M1090 594 1098.2 594.403C1236.38 608.057 1362.42 661.667 1463.92 743.172L1507 781.269 1487.53 790 1451.54 758.202C1352.92 679.078 1230.46 627.034 1096.21 613.779L1093.05 613.624 1090 594Z" fill="#34254C" fill-rule="evenodd"/><path d="M517.634 814 527 832.395 514.968 845.284C447.352 925.054 399.02 1020.89 376.922 1126.04L369.111 1175.87 349 1179 357.909 1122.12C380.654 1013.81 430.399 915.086 499.992 832.915L517.634 814Z" fill="#34254C" fill-rule="evenodd"/><path d="M1540.42 816 1556.16 832.796C1626.17 915.074 1676.21 1013.93 1699.09 1122.38L1708 1179 1687.77 1175.86 1679.96 1126.3C1657.73 1021.02 1609.11 925.055 1541.09 845.181L1531 834.418 1540.42 816Z" fill="#34254C" fill-rule="evenodd"/><path d="M267 1293 312.194 1300.03 313.605 1327.05C328.334 1467.18 386.165 1595 474.087 1697.94L503.372 1729.08 485.78 1763.56 521.04 1747.76 571.558 1792.12C678.095 1877.07 810.385 1932.95 955.418 1947.18L968.975 1947.84 976 1993 950.835 1991.77C591.33 1956.42 305.524 1679.7 269.014 1331.63L267 1293Z" fill="#34254C" fill-rule="evenodd"/><path d="M1790 1294 1788 1332.27C1751.49 1680 1465.68 1956.46 1106.16 1991.77L1081 1993 1088.03 1947.89 1101.58 1947.23C1270.79 1930.64 1422.66 1857.42 1536.51 1747.52L1536.95 1747.05 1574.33 1763.78 1555.65 1727.2 1582.92 1698.23C1670.85 1595.39 1728.68 1467.69 1743.41 1327.69L1744.81 1301.02 1790 1294Z" fill="#34254C" fill-rule="evenodd"/><path d="M347 1306 366.578 1309.05 367.285 1322.68C380.885 1452.85 434.284 1571.59 515.466 1667.22L528 1680.62 518.63 1699 500.483 1679.57C416.926 1581.07 361.966 1458.76 347.968 1324.66L347 1306Z" fill="#34254C" fill-rule="evenodd"/><path d="M1710 1306 1709.05 1324.36C1695.05 1458.61 1640.09 1581.07 1556.52 1679.69L1540.37 1697 1531 1678.6 1541.54 1667.32C1622.73 1571.58 1676.13 1452.7 1689.73 1322.37L1690.42 1309.05 1710 1306Z" fill="#34254C" fill-rule="evenodd"/><path d="M1486.53 1724 1506 1732.74 1464.07 1769.86C1362.61 1851.42 1236.63 1905.07 1098.52 1918.73L1093 1919 1096.05 1899.36 1096.53 1899.34C1230.72 1886.08 1353.12 1834 1451.69 1754.82L1486.53 1724Z" fill="#34254C" fill-rule="evenodd"/><path d="M571.468 1725 605.271 1754.89C703.853 1834.03 826.266 1886.09 960.47 1899.35L960.95 1899.37 964 1919 958.48 1918.73C820.352 1905.07 694.358 1851.45 592.893 1769.92L552 1733.73 571.468 1725Z" fill="#34254C" fill-rule="evenodd"/><path d="M1520.03 802.593 1449.69 940.41 1471.72 969.043C1529.35 1051.96 1563 1151.91 1563 1259.5 1563 1367.09 1529.35 1467.04 1471.72 1549.96L1451.6 1576.1 1520.03 1710.16 1425.72 1667.92 1427 1384.52 1428.36 1376.5 1433.82 1365.81 1444.73 1357.79 1488.36 1341.75 1500.64 1332.39 1507.46 1319.03 1507.46 1301.65 1500.64 1288.29 1488.36 1280.27 1472 1276.26 1135.16 1276.26 1122.89 1278.93 1111.98 1284.28 1103.8 1293.63 1099.71 1304.33 1099.71 1317.69 1106.53 1331.06 1114.71 1337.74 1126.98 1344.42 1150.16 1351.1 1185.62 1360.46 1196.53 1365.81 1203.35 1373.82 1206.08 1385.85 1206.08 1534.21 1204.71 1548.91 1199.26 1564.95 1189.71 1579.65 1182.89 1584.99 1170.62 1593.01 1154.25 1599.69 1132.44 1603.7 1090.16 1603.7 1077.89 1602.37 1056.07 1598.36 1032.88 1591.68 1008.34 1580.98 983.791 1567.62 961.972 1551.58 946.971 1538.22 930.606 1519.5 914.242 1498.12 899.241 1474.06 884.24 1443.32 873.331 1415.26 863.785 1385.85 855.603 1349.77 848.784 1307 844.693 1258.88 844.693 1176.02 847.421 1145.28 854.239 1102.51 863.785 1065.09 876.058 1031.68 892.422 998.264 907.424 974.206 923.788 952.822 938.789 938.12 952.426 926.092 974.245 910.053 997.428 898.025 1019.25 890.006 1039.7 884.66 1065.61 880.65 1114.71 880.65 1136.53 883.323 1163.8 888.669 1197.89 899.361 1221.08 910.053 1246.99 926.092 1264.72 939.457 1283.81 956.831 1301.54 976.879 1313.81 992.918 1330.17 1016.97 1346.54 1046.38 1358.81 1073.11 1368.36 1089.15 1379.27 1098.5 1392.9 1103.85 1414.72 1103.85 1427 1099.84 1439.27 1091.82 1447.45 1079.79 1450.18 1067.76 1448.82 1057.07 1422.91 971.533 1388.95 861.301ZM1028.5 740C1125.36 740 1216.2 765.042 1294.55 808.828L1307 816.484 1301.54 821.844 1287.9 833.872 1276.99 837.882 1256.53 837.882 1245.62 835.209 1218.35 824.517 1196.53 816.498 1162.44 805.805 1131.07 799.123 1091.52 795.113 1017.88 795.113 979.7 799.123 937.425 807.142 904.696 816.498 871.967 828.526 835.147 845.901 809.237 860.602 780.599 879.313 760.143 895.352 745.142 907.38 723.323 928.764 713.777 939.457 701.503 952.822 686.503 971.533 670.138 994.254 653.774 1020.98 640.137 1047.71 623.772 1086.47 611.498 1125.23 603.316 1162.65 597.861 1200.08 595.134 1240.17 595.134 1273.59 597.861 1320.36 601.953 1352.44 611.498 1400.55 622.408 1437.98 634.682 1470.05 649.682 1502.13 666.047 1530.2 681.048 1552.92 694.685 1570.29 706.958 1584.99 728.777 1606.38 745.142 1621.08 758.779 1631.77 775.143 1643.8 798.327 1658.5 829.692 1674.54 861.057 1687.91 885.604 1695.92 921.061 1705.28 959.245 1711.96 998.792 1715.97 1075.16 1715.97 1098.34 1713.3 1131.07 1706.62 1163.8 1695.92 1188.35 1685.23 1214.26 1671.87 1246.99 1654.49 1264.72 1649.15 1276.99 1649.15 1282.44 1650.48 1296.08 1658.5 1327.89 1689.68 1294.55 1710.17C1216.2 1753.96 1125.36 1779 1028.5 1779 733.304 1779 494 1546.41 494 1259.5 494 972.588 733.304 740 1028.5 740Z" fill="#34254C" fill-rule="evenodd"/><path d="M1535 1177 1949 1241.5 1535 1306Z" fill="#34254C" fill-rule="evenodd"/><path d="M527 1306 113 1241.5 527 1177Z" fill="#34254C" fill-rule="evenodd"/><path d="M1091 1768 1026.5 2182 962 1768Z" fill="#34254C" fill-rule="evenodd"/><path d="M962 752 1026.5 338 1091 752Z" fill="#34254C" fill-rule="evenodd"/><path d="M612.564 942.768 541.036 802.56 684.673 866.926Z" fill="#34254C" fill-rule="evenodd"/><path d="M0 148.447 52.3252 0 104.65 148.447Z" fill="#34254C" fill-rule="evenodd" transform="matrix(0.689044 0.724719 0.724719 -0.689044 504.981 1672.53)"/></g></svg>